<svg xmlns="http://www.w3.org/2000/svg" id="Layer_2" data-name="Layer 2" viewBox="0 0 420.65 249.86"><defs><style>      .cls-1 {        fill: #ffdf4c;      }      .cls-1, .cls-2, .cls-3, .cls-4 {        stroke-width: 0px;      }      .cls-2 {        fill: #22b0e2;      }      .cls-3 {        fill: #fff;      }      .cls-5 {        fill: none;        stroke-miterlimit: 10;        stroke-width: 4.58px;      }      .cls-5, .cls-6 {        stroke: #f59322;      }      .cls-6 {        fill: #f59322;        stroke-linejoin: round;        stroke-width: .5px;      }      .cls-4 {        fill: #0a72b9;      }    </style></defs><g id="Sun"><circle class="cls-5" cx="116.78" cy="73.08" r="70.79"></circle><g><circle class="cls-1" cx="116.47" cy="72.86" r="64.34"></circle><path class="cls-6" d="m125.52,23.77c-10.9-.07-22.24-.05-32.06,4.69-6.82,3.29-12.49,8.72-16.69,15.02-9.19,13.78-11.27,32.04-5.44,47.54,5.84,15.5,19.45,27.84,35.44,32.14-9.3-2.34-18.46-6.18-25.49-12.71-5.97-5.54-10.17-12.83-12.71-20.57-3.54-10.77-3.93-22.61-.68-33.47,7.45-24.83,32.5-38.44,57.61-32.64Z"></path><path class="cls-3" d="m116.5,126.82c10.69-1.8,21.43-4.62,30.58-10.45,10.37-6.61,18.25-17.02,21.8-28.79,3.55-11.77,2.72-24.81-2.27-36.04-5.69-12.79-16.85-23.74-29.3-30.03,15.73,7.42,28.53,18.34,33.69,35.7,4.9,16.51,1.33,35.3-9.29,48.86-10.62,13.56-28,21.54-45.21,20.74Z"></path><path class="cls-3" d="m104.79,14.55c-20.38,5.21-37.63,21.3-44.25,41.27-3.33,10.06-4.05,21.11-1.1,31.29,3.8,13.09,13.2,23.69,22.33,33.82-12.3-8.53-21.18-21.85-24.34-36.48-2.48-11.47-1.47-23.68,2.91-34.57,7.65-19.03,24.43-31.69,44.45-35.32Z"></path><path class="cls-6" d="m151.33,46.52c3.29,10.37,8.75,17.72,6.56,29.08-2.62,13.62-13.87,24.37-19.98,32.68,8.45-6.86,18.72-13.62,22.55-31.88,1.96-9.35-1.63-23.21-9.14-29.87Z"></path></g></g><g id="Waves_copy" data-name="Waves copy"><path class="cls-2" d="m128.86,145.54c-1.57-.73-4.72-.42-6.5-.68-2.49-.37-4.96-.86-7.4-1.46-4.88-1.21-9.64-2.88-14.19-4.99-9.09-4.2-17.73-8.67-22.53-17.43-1.91-3.49-2.91-8.61-2.02-12.42,1.42-6.05,8.46-10.61,14.91-9.8,6.45.81,11.82,6.73,11.74,12.95-2.29-1.41-4.68-2.85-7.36-3.21-2.68-.36-5.76.68-6.8,3.06-.73,1.66-.33,3.6.37,5.3,1.44,3.49,4.07,6.42,6.9,9.03,9.37,8.61,21.23,14.21,32.87,19.66Z"></path><path class="cls-4" d="m104.32,145.49c-21.9-8.07-38.42-14.57-50.65-38.56-4.03-7.92-6.27-21.7-5.24-30.38s7.7-15.53,16.9-17.85c5.07-1.28,11.23-.24,14.22,3.73,2.75,3.66,2.09,8.55,1.07,12.89,2.99-3.69,6.48-7.84,5.87-12.4-.8-6.08-7.65-13.43-14.58-15.86C35.59,34.32,1.94,68.67,3.14,100.92c.69,18.54,11.86,35.45,29.38,44.75-7.85-9.75-14.3-19.34-17.89-31-3.6-11.66-3.56-24.58,2.18-35.5s16.31-19.85,29.54-20.26c-8.61,9.21-9.43,22.92-6.74,34.78,2.69,11.87,7.85,22.67,16.2,32.07,5.5,6.19,12.14,10.92,19.99,14.39,9.09,4.02,18.44,4.93,28.52,5.33Z"></path><path class="cls-2" d="m39.56,140.38c-2.95-2.24-6.56-7.04-8.59-10.02-3.3-4.84-5.66-9.37-7.18-14.9-2.18-7.91-1.88-15.02-.76-23.12.55-3.98,1.65-7.91,3.34-11.62,1.26-2.76,4.6-10.04,7.78-11.13-.17,1.45-.9,7.69-1.05,10.27-.2,3.25-.33,6.5-.3,9.75.06,6.45.71,12.93,2.56,19.17,4.67,15.76,18.32,25.34,37.73,36.49-10.05,0-18.93-1.06-27.07-.9-1.02.02-4.6-2.59-6.44-3.98Z"></path></g><g id="Text"><path class="cls-4" d="m20.29,169.12v8.11h18.45v12.86h-18.45v8.32h22.41v14.45H5.04v-58.09h37.66v14.34h-22.41Z"></path><path class="cls-4" d="m101.47,154.7v58.74h-4.9l-29.87-28.94v28.4h-15.42v-58.7h4.97l29.77,28.83v-28.32h15.46Z"></path><path class="cls-4" d="m109.04,183.82c0-17.19,13.91-30.41,32-30.41,7.5.11,15.53,3.39,21.48,8.79l-8.86,11.39c-3.57-3.24-8.29-5.37-12.58-5.37-8.94,0-16.4,6.81-16.4,15.71s7.78,15.64,16.07,15.64c4.86,0,9.23-2.31,12.97-5.66l8.79,11.71c-5.55,5.05-12.94,8.54-21.77,8.54-16.4,0-31.71-12.11-31.71-30.34Z"></path><path class="cls-4" d="m244.79,154.7v58.74h-4.9l-29.87-28.94v28.4h-15.42v-58.7h4.97l29.77,28.83v-28.32h15.46Z"></path><path class="cls-4" d="m254.88,154.77h15.42v58.09h-15.42v-58.09Z"></path><path class="cls-4" d="m320.18,169.19h-13.91v43.68h-15.46v-43.68h-13.95v-14.41h43.31v14.41Z"></path><path class="cls-4" d="m356.75,206.09h-21.69l-2.95,6.77h-16.86l26.99-58.81h7.32l27.03,58.81h-16.9l-2.92-6.77Zm-4.9-11.28l-5.95-13.77-5.98,13.77h11.93Z"></path><path class="cls-4" d="m377.55,203.03l9.33-9.15c2.41,3.57,6.92,5.73,11.78,5.73,3.28,0,6.49-1.19,6.49-3.57,0-2.99-5.95-5.62-11.64-8.14-7.35-3.17-13.66-8-13.66-16.76,0-10.05,9.55-17.23,20.58-17.23,8.86,0,15.78,4.18,18.05,9.91l-8.9,8.58c-1.73-3.06-6.2-4.4-8.97-4.4-3.17,0-5.44,1.62-5.44,3.6,0,2.67,4.11,3.53,10.38,6.16,9.08,3.82,15.1,9.37,15.1,17.95,0,11.06-10.31,17.95-21.95,17.95-9.55,0-18.23-4.22-21.15-10.63Z"></path><g><path class="cls-2" d="m0,238.17c0-6.59,5.33-11.66,12.26-11.66,2.87.04,5.95,1.3,8.23,3.37l-3.4,4.36c-1.37-1.24-3.18-2.06-4.82-2.06-3.42,0-6.28,2.61-6.28,6.02s2.98,5.99,6.16,5.99c1.86,0,3.54-.88,4.97-2.17l3.37,4.49c-2.13,1.93-4.96,3.27-8.34,3.27-6.28,0-12.15-4.64-12.15-11.63Z"></path><path class="cls-2" d="m42.81,227.04v22.26h-5.9v-8.38h-6.61v8.38h-5.91v-22.26h5.91v8.35h6.61v-8.35h5.9Z"></path><path class="cls-2" d="m62.33,246.7h-8.31l-1.13,2.6h-6.46l10.34-22.54h2.8l10.36,22.54h-6.48l-1.12-2.6Zm-1.88-4.32l-2.28-5.28-2.29,5.28h4.57Z"></path><path class="cls-2" d="m97.4,226.83v22.47h-5.91v-8.82l-5.99,8.45h-.04l-6.01-8.45v8.82h-5.91v-22.47h2.38l9.56,13.09,9.56-13.09h2.38Z"></path><path class="cls-2" d="m119.57,242.5c0,3.52-2.96,6.79-7.42,6.79h-9.5v-22.26h7.32c4.03,0,6.99,2.72,6.99,5.79,0,2.29-1.52,3.94-2.43,3.94,2.38,0,5.04,2.39,5.04,5.75Zm-9.78-10.33h-1.45v3.49h1.41c1.28,0,2.25-.63,2.25-1.78,0-1.08-.94-1.71-2.21-1.71Zm4.12,9.62c0-1.3-.94-2.09-2.61-2.09h-2.96s0,4.21,0,4.21h2.91c1.35,0,2.65-.66,2.65-2.13Z"></path><path class="cls-2" d="m129.31,232.53v3.11h7.07v4.93h-7.07v3.19h8.59v5.54h-14.43v-22.26h14.43v5.5h-8.59Z"></path><path class="cls-2" d="m154.47,249.3l-5.95-9.67v9.67h-5.91l-.03-22.26h8.45c4.81,0,8.24,3.25,8.24,7.24,0,2.78-1.67,5.1-3.85,6.09l5.97,8.93h-6.92Zm-5.98-12.48h2.42c1.26.03,2.4-.86,2.4-2.22s-1.16-2.24-2.4-2.24h-2.42v4.46Z"></path><path class="cls-2" d="m173.95,238.19c0-6.68,5.3-11.75,12.22-11.75s12.22,5.07,12.22,11.75-5.3,11.67-12.23,11.67-12.21-5.04-12.21-11.67Zm18.46-.04c0-3.44-2.71-6.09-6.24-6.09s-6.24,2.65-6.24,6.09,2.71,6.06,6.24,6.06,6.24-2.64,6.24-6.06Z"></path><path class="cls-2" d="m208.52,232.53v3.6h7.07v4.94h-7.07v8.24h-5.84v-22.34h14.43v5.55h-8.59Z"></path><path class="cls-2" d="m230.06,238.17c0-6.59,5.33-11.66,12.26-11.66,2.87.04,5.95,1.3,8.23,3.37l-3.4,4.36c-1.37-1.24-3.18-2.06-4.82-2.06-3.42,0-6.28,2.61-6.28,6.02s2.98,5.99,6.16,5.99c1.86,0,3.54-.88,4.97-2.17l3.37,4.49c-2.13,1.93-4.96,3.27-8.34,3.27-6.28,0-12.15-4.64-12.15-11.63Z"></path><path class="cls-2" d="m252.53,238.19c0-6.68,5.3-11.75,12.22-11.75s12.22,5.07,12.22,11.75-5.3,11.67-12.24,11.67-12.21-5.04-12.21-11.67Zm18.46-.04c0-3.44-2.71-6.09-6.24-6.09s-6.24,2.65-6.24,6.09,2.71,6.06,6.24,6.06,6.24-2.64,6.24-6.06Z"></path><path class="cls-2" d="m305.12,226.83v22.47h-5.91v-8.82l-5.99,8.45h-.04l-6.01-8.45v8.82h-5.91v-22.47h2.38l9.56,13.09,9.56-13.09h2.38Z"></path><path class="cls-2" d="m334.24,226.83v22.47h-5.91v-8.82l-5.99,8.45h-.04l-6.01-8.45v8.82h-5.91v-22.47h2.38l9.56,13.09,9.56-13.09h2.38Z"></path><path class="cls-2" d="m345.33,232.53v3.11h7.07v4.93h-7.07v3.19h8.59v5.54h-14.43v-22.26h14.43v5.5h-8.59Z"></path><path class="cls-2" d="m370.49,249.3l-5.95-9.67v9.67h-5.91l-.03-22.26h8.45c4.81,0,8.24,3.25,8.24,7.24,0,2.78-1.67,5.1-3.85,6.09l5.97,8.93h-6.92Zm-5.98-12.48h2.42c1.26.03,2.4-.86,2.4-2.22s-1.16-2.24-2.4-2.24h-2.42v4.46Z"></path><path class="cls-2" d="m379.95,238.17c0-6.59,5.33-11.66,12.26-11.66,2.87.04,5.95,1.3,8.23,3.37l-3.4,4.36c-1.37-1.24-3.18-2.06-4.82-2.06-3.42,0-6.28,2.61-6.28,6.02s2.98,5.99,6.16,5.99c1.86,0,3.54-.88,4.97-2.17l3.37,4.49c-2.13,1.93-4.96,3.27-8.34,3.27-6.28,0-12.15-4.64-12.15-11.63Z"></path><path class="cls-2" d="m410.19,232.53v3.11h7.07v4.93h-7.07v3.19h8.59v5.54h-14.43v-22.26h14.43v5.5h-8.59Z"></path></g></g><g id="Palm_Top" data-name="Palm Top"><polygon class="cls-4" points="173.66 59.26 168.98 212.88 185.58 212.96 179.79 59.52 173.66 59.26"></polygon><path class="cls-4" d="m162.94,22.75c-1.72-5.84-3.71-10.14-6.97-15.32,2.32,1.74,4.27,3.92,5.73,6.38-.24-2.02-.57-4.03-.97-6.03s-1.26-4.06-1.43-6.05c.24.13,2.66,2.03,2.66,2.02.86-.87,1.45-1.98,1.68-3.16,1.8,2.78,3.59,5.55,5.39,8.33l1.21-6.99c.19-.28.61-.23.95-.16s.78.07.91-.24-.6-.44-.46-.13c1.59,1.27,2.94,2.82,3.98,4.55.62-2.15,1.74-4.16,3.25-5.84-.89,3.05-1.39,6.21-1.49,9.39,2.35-2.52,4.71-5.04,7.06-7.57-.31,2.36-.62,4.73-.93,7.09,2.64-2.43,5.27-4.85,7.91-7.28l-.75,2.58,2.99-1.91c-1.7,3.23-3.07,6.62-4.06,10.11,4.17-3.1,9.23-5.06,14.45-5.6l-2.78,1.81,3.72-.19c-1.77,1.69-3.53,3.38-5.3,5.08l2.42-.19c-1.05,1.29-2.1,2.57-3.16,3.86,1.64-.22,3.37.65,4.12,2.08-2.6-.71-5.31.73-7.34,2.45s-3.79,3.84-6.24,4.95c6.28-3.97,13.16-7.04,20.35-9.08-8.1,4.51-15.62,9.97-22.36,16.23,1.67-1.1,3.35-2.21,5.02-3.31,3.59-2.37,7.22-4.76,11.28-6.22s8.68-1.93,12.72-.41c-6.59,1.09-12.91,3.67-18.33,7.47,8.96-.16,17.82,4.78,22.18,12.37-6.69-3.92-14.38-7.71-21.99-5.99,11.5.95,22.44,7.06,29.05,16.23-1.31-.75-2.63-1.49-3.94-2.24l2.21,3.95c-9.15-6.74-20.66-10.43-32.15-10.29,10.85,1.21,21.21,6.15,28.81,13.74-2.8-1.41-5.73-2.6-8.73-3.55,3.5,2.14,6.06,5.67,6.97,9.58-2.75-3.36-6.32-6.1-10.34-7.92,4.26,2.53,7.64,6.44,9.44,10.96-3.33-3.82-7.5-6.94-12.16-9.09,3.12,5.34,6.68,10.44,10.65,15.22-1.72-1.39-3.43-2.79-5.15-4.18,3.88,3.5,6.18,8.58,6.22,13.72-2.76-7.62-7.59-14.53-13.87-19.85,2.12,4.03,4.51,7.91,7.17,11.62-1.41-1.3-2.81-2.6-4.22-3.91,3.06,3.55,4.7,8.22,4.49,12.84l-.87-1.53c.06,2.01.12,4.02.19,6.03l-2.23-3.54-.65,2.79c-.69-.7-1.2-1.57-1.48-2.5l-1.95,2.59c-.57-5.53-2.75-10.9-6.23-15.32,1.29,7.49,1.4,15.17.32,22.7-.47-9.85-1.04-20.06-5.81-28.77,2.85,8.4,4.45,17.21,4.73,26.05-2.39-9.04-5.32-16.02-10.29-24.02,1.2,8.6,6.23,14.95,4.73,23.51-.85-4.06-1.61-10.07-5.6-11.56-.38,1.33-.24,6.76-.62,8.09-.02-1.59-1.39-5.95-1.86-7.47l-.58,1.52c-1.5-4.73-3.45-9.33-5.8-13.73l-.66,1.54c-1.39-.89.4-.98-.95-.05s-2.69,1.61-3.4,3.06c-2.5,5.12-6.65,12.13-5.78,17.74-2.15-3.45-2.87-7.53-3.55-11.51,1,4.82,1.11,9.81.33,14.66-1.16-6.25-2.16-9.38-3.7-11.2-.46,5.15-.74,10.32-.84,15.49-.61-2.52-1.22-5.04-1.83-7.57-.69,1.98-1.39,3.96-2.08,5.94-.12-7.5.37-15,.86-22.49-2.95,6.45-5.45,13.09-7.46,19.87-.02-1.26-.03-2.53-.05-3.79l-1.99,5.25c.5-6.56.36-13.17-.44-19.7-4.68,5.12-7.74,11.61-8.66,18.39-.19-5.43.98-10.9,3.37-15.81-1.29,1.97-2.58,3.95-3.87,5.92,2.25-6.29,5.15-12.37,8.64-18.11-5,5.26-9.3,11.15-12.76,17.47.66-3.01,1.32-6.03,1.98-9.04.09-.4-.15-.88.11-1.21s.67.5.31.3c.26-.37-.23-.88-.69-.84s-.82.38-1.13.71c-1.13,1.18-2.26,2.37-3.39,3.55,3.81-6.43,7.89-12.71,12.25-18.8-6.05,4.13-11.44,9.18-15.9,14.91,1.74-4.64,4-9.09,6.73-13.26-3.35,1.73-6.27,4.23-8.46,7.24.81-2.95,2.92-5.4,5.14-7.57,6.8-6.65,21.2-14.58,18.42-13.15s-5.15,3.51-7.86,5.07c-5.37,3.09-12.43,4.48-15.34,9.83,3.44-10.91,13.23-19.71,24.71-22.23,3.64-.8.59-2.37,3.13.27-10.05-5-14.9-4.16-25.5-.38,1.67-2.35,4-4.24,6.69-5.42-2.42-.52-4.83-1.03-7.25-1.55,6.11-.11,12.21-.22,18.32-.33-2.95-.46-5.89-.93-8.84-1.39,6.05-.56,12.2-.05,18.07,1.48-7.29-4.84-15.88-7.83-24.68-8.61,8.67-.9,17.61.9,25.19,5.07-1.99-4.38-6.43-7.63-11.32-8.28l4.46-.72-4.84-5.79,3.07-.38c-.66-.99-1.45-1.91-2.34-2.71-.32-.29-.63.6-.19.55-.16-.79.65-1.51,1.48-1.6s1.62.29,2.35.67c5.95,3.09,10.53,6.31,14.27,11.77Z"></path></g></svg>